Coordinates
version=1
nRows=16
nColumns=42
inDegrees=yes

Units are S.I. units (second, meters, Newtons, ...)
If the header above contains a line with 'inDegrees', this indicates whether rotational values are in degrees (yes) or radians (no).

endheader
time	pelvis_tilt	pelvis_list	pelvis_rotation	pelvis_tx	pelvis_ty	pelvis_tz	hip_flexion_r	hip_adduction_r	hip_rotation_r	knee_angle_r	knee_adduction_r	knee_angle_r_beta	ankle_angle_r	subtalar_angle_r	mtp_angle_r	hip_flexion_l	hip_adduction_l	hip_rotation_l	knee_angle_l	knee_adduction_l	knee_angle_l_beta	ankle_angle_l	subtalar_angle_l	mtp_angle_l	lumbar_extension	lumbar_bending	lumbar_rotation	arm_flex_r	arm_add_r	arm_rot_r	elbow_flex_r	pro_sup_r	wrist_flex_r	wrist_dev_r	arm_flex_l	arm_add_l	arm_rot_l	elbow_flex_l	pro_sup_l	wrist_flex_l	wrist_dev_l
      0.74000000	      3.84615322	     -0.95634197	      1.40801535	     -0.00265736	      0.98476956	     -0.24423112	     16.93323997	      0.43328700	     -7.82533291	     48.25100739	     -1.68857766	      0.84213895	      2.73705472	    -14.51642572	     -7.64587786	     -6.62326936	      1.46648958	     -0.56532706	      7.81488192	     -0.36312996	      0.13639542	      8.76648425	      0.83808183	     -7.64587786	    -15.00553156	     -1.19489887	     -0.04006903	    -10.64092196	     -9.32593337	      1.96760027	     33.60757402	     90.00000001	      0.00000000	      0.00000000	      1.69646748	    -10.53656518	      4.67527051	     31.38965924	     90.00000001	      0.00000000	      0.00000000
      0.75000000	      3.51379339	     -0.84027105	      1.53196737	      0.01073661	      0.98327930	     -0.24500366	     18.20905932	      0.18136017	     -7.89291350	     45.90788746	     -1.45387837	      0.80124379	      2.93805680	    -13.98406267	     -7.64399143	     -7.25883843	      1.69263403	     -0.61441033	      7.55325566	     -0.52518426	      0.13182918	      9.19489918	      0.91231318	     -7.64399143	    -14.65256774	     -1.14628459	     -0.23994215	    -11.11818698	     -9.48913705	      1.82578270	     33.58648498	     90.00000001	      0.00000000	      0.00000000	      2.42910857	    -10.53388510	      5.11452966	     32.23269530	     90.00000001	      0.00000000	      0.00000000
      0.76000000	      3.92821467	     -1.32097333	      1.88701718	      0.02485114	      0.98257370	     -0.24528903	     18.25907926	      0.66710752	     -8.20915431	     42.82033470	     -1.21544963	      0.74735583	      3.18543998	    -13.53419397	     -7.63684590	     -9.01132759	      0.99548580	      0.10843315	      6.76355877	     -0.26496331	      0.11804637	      9.67358334	      0.72948504	     -7.63684590	    -15.05504628	     -0.43841976	     -0.34138123	    -11.56476774	     -9.51649183	      1.10743299	     33.54743934	     90.00000001	      0.00000000	      0.00000000	      3.12465785	    -11.01253016	      7.71337695	     33.55820672	     90.00000001	      0.00000000	      0.00000000
      0.77000000	      3.67420055	     -1.32875766	      2.02079559	      0.03834856	      0.98059909	     -0.24579226	     19.18836529	      0.57061235	     -8.30832918	     39.95363812	     -0.97101048	      0.69732253	      3.56294886	    -12.72546674	     -7.63337084	     -9.77404006	      0.99593296	      0.37498518	      6.45055360	     -0.25437306	      0.11258340	     10.31684561	      0.71618196	     -7.63337084	    -14.78031132	     -0.27186898	     -0.49431639	    -11.91561533	     -9.60582111	      0.80269813	     33.39596448	     90.00000001	      0.00000000	      0.00000000	      3.83748112	    -11.14425048	      8.56628534	     34.60224387	     90.00000001	      0.00000000	      0.00000000
      0.78000000	      3.87106070	     -1.51544939	      2.20029834	      0.05226090	      0.97896281	     -0.24599395	     19.43845726	      0.76845633	     -8.97125382	     36.70465067	     -1.13013375	      0.64061700	      3.79050048	    -11.57421446	     -7.62719985	    -11.08676308	      0.71250476	      0.63261554	      6.06651470	     -0.15954815	      0.10588066	     10.77151674	      0.47627607	     -7.62719985	    -14.98170679	      0.09320228	     -0.53964022	    -12.26185276	     -9.62277219	      0.21841054	     33.31303364	     90.00000001	      0.00000000	      0.00000000	      4.63571770	    -11.43770572	     10.21538899	     35.64927089	     90.00000001	      0.00000000	      0.00000000
      0.79000000	      3.75310677	     -1.53845647	      2.27147454	      0.06589284	      0.97664057	     -0.24614612	     20.01982645	      0.78050356	     -9.41664174	     33.45291632	     -1.18434302	      0.58386353	      4.18374911	    -10.16308226	     -7.62242237	    -11.96645769	      0.66650710	      0.78060295	      5.85479932	     -0.11299824	      0.10218553	     11.37847952	      0.31251213	     -7.62242237	    -14.86735338	      0.25148062	     -0.58516487	    -12.50444481	     -9.63795890	     -0.18748268	     33.07695011	     90.00000001	      0.00000000	      0.00000000	      5.41410492	    -11.62733569	     11.26135497	     36.64618109	     90.00000001	      0.00000000	      0.00000000
      0.80000000	      3.71353935	     -1.55394944	      2.32154992	      0.07957903	      0.97423999	     -0.24623911	     20.41924704	      0.80690765	    -10.07216464	     30.06262973	     -1.33853302	      0.52469187	      4.46412798	     -8.32636710	     -7.61723235	    -12.92512785	      0.62033044	      0.84602987	      5.66290604	     -0.04807486	      0.09883636	     11.92678880	      0.17507298	     -7.61723235	    -14.84712255	      0.40309919	     -0.60120955	    -12.72162566	     -9.64291900	     -0.65713932	     32.88762545	     90.00000001	      0.00000000	      0.00000000	      6.22170325	    -11.82715077	     12.35347270	     37.58655837	     90.00000001	      0.00000000	      0.00000000
      0.81000000	      3.71099391	     -1.55309533	      2.36378168	      0.09340254	      0.97168220	     -0.24629769	     20.68591450	      0.82914709	    -10.88247622	     26.60629913	     -1.53444069	      0.46436752	      4.74948909	     -6.10966612	     -7.61102410	    -13.93618037	      0.58245997	      0.83233938	      5.46639830	      0.04638819	      0.09540665	     12.45462818	      0.04027779	     -7.61102410	    -14.86632182	      0.54580947	     -0.62825519	    -12.89619223	     -9.64508800	     -1.15309220	     32.68558993	     90.00000001	      0.00000000	      0.00000000	      7.02703040	    -12.00610495	     13.36327392	     38.47865150	     90.00000001	      0.00000000	      0.00000000
      0.82000000	      3.26657551	     -1.25899235	      2.26157377	      0.10678305	      0.96842990	     -0.24635133	     21.42002426	      0.48873276	    -11.06475489	     23.31946273	     -1.33327540	      0.40700140	      4.85749698	     -4.43445985	     -7.60860645	    -14.33209001	      0.95112058	      0.75178688	      5.54975906	      0.07816711	      0.09686157	     13.03395382	     -0.01939092	     -7.60860645	    -14.44660403	      0.32026577	     -0.59717496	    -12.97872414	     -9.64004027	     -1.35600236	     32.29072902	     90.00000001	      0.00000000	      0.00000000	      7.81023169	    -12.05758108	     13.84084829	     39.30890063	     90.00000001	      0.00000000	      0.00000000
      0.83000000	      3.40271316	     -1.33696175	      2.25839151	      0.12092001	      0.96581262	     -0.24607694	     21.33351987	      0.69888450	    -11.99116373	     19.86336617	     -1.55033194	      0.34668114	      5.06199577	     -1.98896722	     -7.60374789	    -15.51093349	      0.80581025	      0.48803366	      5.35441166	      0.18440957	      0.09345211	     13.53080318	     -0.04469829	     -7.60374789	    -14.61886200	      0.53563620	     -0.57096526	    -13.04615535	     -9.57458140	     -1.99673788	     31.98531503	     90.00000001	      0.00000000	      0.00000000	      8.58747543	    -12.26387095	     14.84043399	     40.09225999	     90.00000001	      0.00000000	      0.00000000
      0.84000000	      3.28341765	     -1.20140043	      2.23189850	      0.13486949	      0.96281023	     -0.24592520	     21.52722337	      0.58693883	    -12.70780560	     16.76319750	     -1.48264766	      0.29257299	      5.08589363	      0.18683991	     -7.59843143	    -16.35105620	      0.93462894	      0.29772525	      5.29448188	      0.24117893	      0.09240614	     13.99446319	      0.01267033	     -7.59843143	    -14.53701987	      0.50980657	     -0.58975694	    -13.08268720	     -9.52500477	     -2.41152926	     31.66509653	     90.00000001	      0.00000000	      0.00000000	      9.33418497	    -12.35604621	     15.35762058	     40.80550705	     90.00000001	      0.00000000	      0.00000000
      0.85000000	      2.77043186	     -0.75985628	      2.10019935	      0.14869012	      0.95921421	     -0.24604305	     22.27664217	      0.08325919	    -13.15096686	     14.33065774	     -1.22359440	      0.25011716	      4.93538612	      1.29237733	     -7.59710240	    -16.68929491	      1.52608725	     -0.01860826	      5.40064255	      0.12990392	      0.09425899	     14.42459848	     -0.00050177	     -7.59710240	    -14.02401904	      0.16149513	     -0.65149342	    -13.13441891	     -9.55530819	     -2.53251323	     31.38561403	     90.00000001	      0.00000000	      0.00000000	      9.97395571	    -12.34088256	     15.50468665	     41.37960586	     90.00000001	      0.00000000	      0.00000000
      0.86000000	      2.92566755	     -0.88857414	      2.14424180	      0.16308541	      0.95662919	     -0.24561124	     21.94649722	      0.33481018	    -13.73907871	     11.64602783	     -1.12730510	      0.20326153	      4.88128341	      3.30789623	     -7.59327789	    -17.82054213	      1.24029492	     -0.24308435	      5.39938504	      0.32740239	      0.09423705	     14.78164879	      0.24126342	     -7.59327789	    -14.23507587	      0.43685658	     -0.64506953	    -13.00737242	     -9.42087100	     -3.27160695	     30.80170868	     90.00000001	      0.00000000	      0.00000000	     10.67698781	    -12.42147706	     16.03322048	     42.03681999	     90.00000001	      0.00000000	      0.00000000
      0.87000000	      2.54225290	     -0.59522428	      2.04088898	      0.17733833	      0.95333386	     -0.24557926	     22.54722354	      0.01160693	    -14.28895430	     10.18472045	     -0.88633275	      0.17775691	      4.74331242	      3.92665958	     -7.59228660	    -18.31126259	      1.58957694	     -0.47796344	      5.53126258	      0.29913640	      0.09653874	     15.04788095	      0.27634932	     -7.59228660	    -13.84521685	      0.26631475	     -0.68439101	    -13.04283452	     -9.46093282	     -3.38348915	     30.55205845	     90.00000001	      0.00000000	      0.00000000	     11.23390231	    -12.34009873	     16.04339556	     42.46339959	     90.00000001	      0.00000000	      0.00000000
      0.88000000	      2.30976941	     -0.50915281	      2.09381778	      0.19169074	      0.95050716	     -0.24546596	     22.77498061	     -0.03011981	    -14.59172404	      8.82473153	     -0.76124486	      0.15402062	      4.52649328	      4.89522291	     -7.59100343	    -18.89704677	      1.62611265	     -0.49066612	      5.79003697	      0.29675260	      0.10105521	     15.25757944	      0.42318108	     -7.59100343	    -13.64714239	      0.35470109	     -0.85986152	    -12.86214385	     -9.42481279	     -3.72168486	     30.03682111	     90.00000001	      0.00000000	      0.00000000	     11.75709909	    -12.28654522	     16.03435205	     42.89576703	     90.00000001	      0.00000000	      0.00000000
      0.89000000	      2.53484190	     -0.92938437	      2.29590347	      0.20676479	      0.94842351	     -0.24495861	     22.55170210	      0.51558467	    -15.67935162	      8.13625917	     -0.91964052	      0.14200451	      4.49323586	      5.77350344	     -7.58684806	    -19.96264066	      0.90557554	     -0.67938563	      6.12254369	      0.50667714	      0.10685855	     15.45732722	      0.83654843	     -7.58684806	    -13.88185590	      1.00384342	     -0.97511361	    -12.73261277	     -9.31764180	     -4.58475840	     29.64067454	     90.00000001	      0.00000000	      0.00000000	     12.24974779	    -12.13119086	     15.85434304	     43.27830726	     90.00000001	      0.00000000	      0.00000000
